HIERARCHY
ROOT Model_Hips
{
	OFFSET 0.000000 96.915077 0.000000
	CHANNELS 6 Xposition Yposition Zposition Xrotation Yrotation Zrotation
	JOINT Model_Spine
	{
		OFFSET 0.000000 11.137703 -1.289900
		CHANNELS 3 Xrotation Yrotation Zrotation
		JOINT Model_Spine1
		{
			OFFSET 0.000000 12.993942 -1.504922
			CHANNELS 3 Xrotation Yrotation Zrotation
			JOINT Model_Spine2
			{
				OFFSET 0.000000 14.850220 -1.719911
				CHANNELS 3 Xrotation Yrotation Zrotation
				JOINT Model_Neck
				{
					OFFSET 0.000000 16.706543 -1.934903
					CHANNELS 3 Xrotation Yrotation Zrotation
					JOINT Model_Head
					{
						OFFSET 0.000000 10.471298 2.002100
						CHANNELS 3 Xrotation Yrotation Zrotation
						JOINT Model_HeadTop_End
						{
							OFFSET 0.000000 20.842606 3.985100
							CHANNELS 3 Xrotation Yrotation Zrotation
							End Site
							{
								OFFSET 0.000000 21.220154 0.000000
							}
						}
					}
				}
				JOINT Model_LeftShoulder
				{
					OFFSET 7.008500 14.768600 -1.919946
					CHANNELS 3 Xrotation Yrotation Zrotation
					JOINT Model_LeftArm
					{
						OFFSET 14.126271 -3.718048 0.029937
						CHANNELS 3 Xrotation Yrotation Zrotation
						JOINT Model_LeftForeArm
						{
							OFFSET 28.282801 0.000000 0.000000
							CHANNELS 3 Xrotation Yrotation Zrotation
							JOINT Model_LeftHand
							{
								OFFSET 26.204689 0.000000 0.000000
								CHANNELS 3 Xrotation Yrotation Zrotation
								End Site
								{
									OFFSET 26.204704 0.000000 0.000000
								}
							}
						}
					}
				}
				JOINT Model_RightShoulder
				{
					OFFSET -7.008500 14.768555 -1.949840
					CHANNELS 3 Xrotation Yrotation Zrotation
					JOINT Model_RightArm
					{
						OFFSET -14.126281 -3.718018 -0.029932
						CHANNELS 3 Xrotation Yrotation Zrotation
						JOINT Model_RightForeArm
						{
							OFFSET -28.283798 0.000000 -0.000001
							CHANNELS 3 Xrotation Yrotation Zrotation
							JOINT Model_RightHand
							{
								OFFSET -26.204193 0.000000 -0.000001
								CHANNELS 3 Xrotation Yrotation Zrotation
								End Site
								{
									OFFSET -26.204208 0.000000 -0.000001
								}
							}
						}
					}
				}
			}
		}
	}
	JOINT Model_LeftUpLeg
	{
		OFFSET 8.327700 -6.193199 -0.402800
		CHANNELS 3 Xrotation Yrotation Zrotation
		JOINT Model_LeftLeg
		{
			OFFSET 0.735802 -42.108742 -0.610721
			CHANNELS 3 Xrotation Yrotation Zrotation
			JOINT Model_LeftFoot
			{
				OFFSET -0.735806 -36.833748 -0.172876
				CHANNELS 3 Xrotation Yrotation Zrotation
				JOINT Model_LeftToeBase
				{
					OFFSET -0.565857 -11.977769 16.297714
					CHANNELS 3 Xrotation Yrotation Zrotation
					JOINT Model_LeftToe_End
					{
						OFFSET -0.111712 -0.312793 7.857784
						CHANNELS 3 Xrotation Yrotation Zrotation
						End Site
						{
							OFFSET -0.111712 -0.312793 7.857784
						}
					}
				}
			}
		}
	}
	JOINT Model_RightUpLeg
	{
		OFFSET -8.327700 -6.193199 -0.516500
		CHANNELS 3 Xrotation Yrotation Zrotation
		JOINT Model_RightLeg
		{
			OFFSET -0.735785 -42.108738 -0.434061
			CHANNELS 3 Xrotation Yrotation Zrotation
			JOINT Model_RightFoot
			{
				OFFSET 0.735776 -36.833748 -0.021630
				CHANNELS 3 Xrotation Yrotation Zrotation
				JOINT Model_RightToeBase
				{
					OFFSET 0.565817 -11.977745 15.903093
					CHANNELS 3 Xrotation Yrotation Zrotation
					JOINT Model_RightToe_End
					{
						OFFSET 0.111702 -0.312791 7.811342
						CHANNELS 3 Xrotation Yrotation Zrotation
						End Site
						{
							OFFSET 0.111702 -0.312791 7.811342
						}
					}
				}
			}
		}
	}
}
MOTION
Frames: 7
Frame Time: 0.033333
-3.846445 94.295311 51.587704 -2.699264 1.342101 -5.822933 3.650445 -0.764721 2.353231 7.319182 -1.404444 3.849326 7.319184 -1.404444 3.849327 -6.292847 0.041586 0.029839 -6.292849 0.041586 0.029835 0.000000 0.000000 0.000000 12.575035 6.860938 -4.968512 1.585764 -40.413324 -60.307422 -0.094949 -38.163795 -0.001979 -0.000002 0.000000 -0.000000 11.528391 8.486204 -1.626407 2.195772 2.678617 69.035898 -0.089964 30.173344 0.012493 0.000001 -0.000000 -0.000001 -19.458079 1.155818 13.221681 68.630881 -3.850089 -2.585081 16.500374 -6.452477 -4.235969 -38.206463 -7.661953 9.810557 -0.000002 0.000000 -0.000000 -16.032455 -4.174641 6.771284 30.387030 -1.880256 1.118348 -11.442074 -1.021899 -2.601295 -1.726303 -0.176305 0.436669 0.000000 0.000000 0.000000 
-4.152211 94.715912 54.103561 -3.623552 1.089047 -5.166127 3.666420 -0.459346 2.168424 7.344439 -0.792998 3.562254 7.344442 -0.792999 3.562252 -6.010977 0.000343 -0.036038 -6.010982 0.000343 -0.036043 0.000000 0.000000 0.000000 12.603187 6.979777 -5.373915 3.465159 -38.582366 -60.534341 -0.101132 -36.792067 -0.001445 -0.000001 -0.000001 0.000001 11.347737 9.649427 -1.605904 0.793915 2.735584 68.237585 -0.101979 33.481796 0.012375 0.000001 -0.000000 -0.000000 -21.564290 0.848789 12.119010 68.376880 -4.090992 -2.585720 11.211502 -5.468646 -4.323046 -34.145926 -5.514724 8.547388 0.000001 -0.000000 -0.000000 -12.702163 -4.304366 6.367067 29.449993 -1.718205 1.071931 -12.889158 -0.352363 -2.762649 -1.515065 -0.177646 0.437903 0.000000 0.000000 -0.000000 
-4.357736 95.190659 56.545132 -4.380635 0.612702 -4.326251 3.673013 -0.119008 1.868538 7.350609 -0.126948 3.147881 7.350611 -0.126948 3.147882 -5.781414 -0.040898 -0.076589 -5.781431 -0.040898 -0.076591 0.000000 0.000000 -0.000000 12.637832 7.271089 -5.546021 5.315893 -36.838250 -60.662605 -0.108372 -35.360388 -0.001678 -0.000002 0.000001 -0.000001 11.173306 10.783716 -1.430625 -0.811118 2.827546 67.419124 -0.111931 37.325020 0.011737 0.000003 0.000002 -0.000002 -22.687983 0.958590 10.479633 65.054512 -4.118498 -2.490207 7.195629 -1.452921 -5.155064 -32.805088 -2.903848 5.361810 0.000000 0.000000 0.000000 -9.330817 -4.377915 5.673895 27.805509 -1.512536 0.986706 -13.850875 0.413752 -2.791169 -1.336313 -0.178771 0.438950 0.000000 0.000000 0.000000 
-4.483719 95.678192 58.924660 -4.962617 0.109871 -3.423382 3.687170 0.228998 1.516313 7.371923 0.557809 2.650913 7.371924 0.557809 2.650915 -5.615850 -0.088542 -0.098788 -5.615855 -0.088541 -0.098790 0.000000 0.000000 0.000000 12.670988 7.596604 -5.605375 7.116696 -35.188872 -60.704447 -0.116865 -33.884025 -0.002535 -0.000001 0.000000 0.000000 11.020356 11.762288 -1.247514 -2.684080 2.955587 66.581230 -0.119996 41.560714 0.011178 0.000003 0.000001 -0.000001 -22.925870 1.290545 8.702843 59.230601 -3.985706 -2.311437 3.463082 3.698138 -6.519307 -28.427466 -1.566650 3.797850 -0.000001 -0.000000 -0.000000 -5.972636 -4.109039 4.909346 25.539923 -1.289106 0.871234 -14.403050 0.761123 -2.707790 -1.281287 -0.179121 0.439273 -0.000000 -0.000000 0.000000 
-4.547135 95.993484 61.256020 -5.297162 -0.297933 -2.633479 3.699997 0.551003 1.207884 7.392860 1.201030 2.149960 7.392867 1.201030 2.149961 -5.510700 -0.138432 -0.126883 -5.510697 -0.138430 -0.126884 -0.000000 0.000000 0.000000 12.703518 7.880887 -5.722599 8.849912 -33.639389 -60.670036 -0.125556 -32.385748 -0.003848 -0.000002 0.000000 0.000000 10.895688 12.552913 -1.268864 -4.619989 3.115790 65.740277 -0.126388 46.055108 0.010627 -0.000001 -0.000001 0.000000 -22.601229 1.751334 7.098087 51.693645 -3.714610 -2.068174 -0.128274 8.273664 -7.542362 -18.944465 -1.166225 4.204060 0.000000 -0.000002 -0.000000 -3.126634 -3.743703 4.194977 23.697978 -1.077797 0.786086 -15.126381 0.792996 -2.584713 -1.369534 -0.178564 0.438754 -0.000000 0.000000 0.000000 
-4.554480 96.134804 63.588135 -5.374519 -0.594638 -2.121983 3.705696 0.822708 0.975836 7.402402 1.751584 1.733905 7.402399 1.751582 1.733905 -5.463932 -0.182171 -0.168555 -5.463911 -0.182175 -0.168553 -0.000000 -0.000000 -0.000000 12.738696 8.128888 -5.941943 10.496764 -32.195415 -60.551205 -0.133793 -30.886477 -0.005277 -0.000005 0.000000 -0.000001 10.790683 13.235703 -1.472829 -6.414895 3.303968 64.884605 -0.130828 50.672484 0.009872 -0.000002 0.000004 -0.000001 -21.734316 2.528537 5.858569 42.540501 -3.285495 -1.759587 -2.392385 10.442567 -7.215736 -6.577363 -0.649620 5.309982 0.000001 -0.000002 0.000000 -0.681005 -3.809721 3.641261 22.223933 -0.932238 0.718961 -16.031576 1.092792 -2.402908 -1.549437 -0.177429 0.437703 0.000000 -0.000000 0.000000 
-4.522634 96.105461 65.970276 -5.202872 -0.779000 -1.983534 3.692235 1.029239 0.837846 7.376313 2.178086 1.437318 7.376318 2.178086 1.437317 -5.468404 -0.215069 -0.214275 -5.468410 -0.215068 -0.214278 0.000000 -0.000000 -0.000000 12.775228 8.376308 -6.166599 12.039477 -30.861291 -60.335890 -0.140614 -29.409032 -0.006380 0.000001 -0.000000 -0.000001 10.690269 13.902218 -1.636792 -7.864800 3.719242 64.020914 -0.133362 55.275136 0.009089 0.000003 -0.000000 0.000001 -21.191225 3.385856 5.179894 33.059318 -2.908404 -1.435060 -3.276562 9.499185 -6.687943 -0.262913 -0.026735 0.063253 0.000001 0.000001 -0.000001 1.488116 -4.430159 3.376017 20.976520 -0.877209 0.653239 -17.084644 1.849852 -2.123113 -1.749091 -0.176165 0.436536 0.000000 0.000001 0.000000 
